# xmcd CD database file
#
# Track frame offsets:
#	150
#	18850
#	37055
#	57255
#	79052
#	100612
#	122412
#	137842
#	155040
#	173862
#
# Disc length: 2552 seconds
#
# Revision: 0
# Processed by: cddbd v1.5PL3 Copyright (c) Steve Scherf et al.
# Submitted via: CDex 1.51
#
DISCID=7a09f60a
DTITLE=柳原愛子 - Innocent Color
DYEAR=1900
DGENRE=JPop
TTITLE0=Dont Let Me Down
TTITLE1=涙より悲しい気持ち
TTITLE2=風を追いかけて
TTITLE3=Rainy Day
TTITLE4=過ぎゆく時の中
TTITLE5=思い出のかけら
TTITLE6=きっとふたり会えてよかった
TTITLE7=新しい道を探して
TTITLE8=ときめきながら微笑みながら
TTITLE9=遠く消えてゆく
EXTD=
EXTT0=
EXTT1=
EXTT2=
EXTT3=
EXTT4=
EXTT5=
EXTT6=
EXTT7=
EXTT8=
EXTT9=
PLAYORDER=
